<?xml version="1.0" encoding="utf-8"?>
<!-- Generator: Adobe Illustrator 23.0.1, SVG Export Plug-In . SVG Version: 6.00 Build 0)  -->
<svg version="1.1" id="Layer_1" xmlns="http://www.w3.org/2000/svg" xmlns:xlink="http://www.w3.org/1999/xlink" x="0px" y="0px"
	 viewBox="0 0 1920 1080" style="enable-background:new 0 0 1920 1080;" xml:space="preserve">
<style type="text/css">
	.st0{fill:#FFFFFF;}
	.st1{fill:#FCFCFC;stroke:#FFFFFF;stroke-width:12;stroke-miterlimit:10;}
	.st2{fill:none;}
	.st3{fill:none;stroke:#000000;stroke-width:2;stroke-linecap:round;stroke-miterlimit:10;}
</style>
<circle class="st0" cx="960" cy="540" r="364.55"/>
<circle class="st1" cx="960" cy="540" r="345.98"/>
<path id="SVGID_x5F_1_x5F_" class="st2" d="M1155.62,540c0,108.04-87.58,195.62-195.62,195.62S764.38,648.04,764.38,540
	S851.96,344.38,960,344.38S1155.62,431.96,1155.62,540z"/>
<text><textPath  xlink:href="#SVGID_x5F_1_x5F_" startOffset="13942.6211%">
<tspan  class="st0" style="font-family:'RicardoALT-Regular'; font-size:90px; letter-spacing:120;">PIEKARNIA</tspan></textPath>
</text>
<path class="st0" d="M1047.26,504.33c-9.25-5.87-21.28-10.75-34.97-14.22c-1.62-8.07-9.18-15.11-21.28-19.66
	c-8.26-3.11-19.86-4.96-31.01-4.96c-13.21,0-25.87,2.59-35.65,7.28c-9.43,4.53-15.2,10.6-16.63,17.34
	c-13.69,3.46-25.73,8.35-34.98,14.22c-11.66,7.41-16.93,21.61-13.32,35.19c-12.21,18.16-18.64,37.88-18.64,57.16
	c0,9.83,8,17.83,17.83,17.83c4.74,0,9.19-1.84,12.55-5.17l22.1-20.84c4.2,1.78,8.6,2.63,12.94,2.63c9.45,0,18.65-4.05,25.05-11.45
	c2.21,1.42,4.82,2.22,7.54,2.22l42.57,0.01c2.7,0,5.26-0.77,7.44-2.16c9.27,10.68,24.52,14.43,37.94,8.76l22.1,20.84
	c3.36,3.33,7.82,5.17,12.55,5.17c9.83,0,17.83-8,17.83-17.83c0-19.28-6.44-39-18.65-57.16
	C1064.19,525.94,1058.92,511.73,1047.26,504.33z M864.72,602.61c-0.03,0.03-0.07,0.06-0.1,0.09c-1.61,1.61-3.75,2.49-6.02,2.49
	c-4.7,0-8.51-3.82-8.51-8.51c0-18.84,6.79-35.09,13.84-46.89l12.15,22.03c2.12,4.6,5.15,8.56,8.91,11.68L864.72,602.61z
	 M884.48,567.8c-1.56-3.43-14.14-24.83-15.55-28.99c-3.49-10.17,0.14-21.11,8.81-26.62c7.86-4.99,18.06-9.23,29.74-12.39
	c0.8,25,6.42,47.63,17.88,72.36C914.91,586.44,892.16,584.68,884.48,567.8z M981.36,572.6l-42.57,0.04c-1.68,0-3.32-0.93-4.18-2.69
	c-20.54-43.42-17.37-74.05-17.9-76.96c0.59-8.68,18.91-18.19,43.3-18.19c9.94,0,20.56,1.67,27.73,4.37
	c9.34,3.51,15.24,8.77,15.57,13.83c-0.4,2.17,2.17,39.35-18.07,77.42C984.36,571.78,982.93,572.6,981.36,572.6z M994.75,572.32
	c10.98-21.83,16.94-46.18,17.77-72.52c11.68,3.16,21.88,7.4,29.74,12.39c8.67,5.5,12.29,16.45,8.8,26.63
	c-1.16,3.39-1.48,3.19-15.39,28.66c-0.06,0.1-0.11,0.21-0.16,0.32C1027.85,584.66,1005.23,586.38,994.75,572.32z M1061.39,605.2
	c-2.27,0-4.41-0.88-6.02-2.49c-0.03-0.03-0.06-0.06-0.1-0.09l-20.27-19.11c3.76-3.12,6.79-7.07,8.91-11.68l12.15-22.03
	c7.06,11.8,13.84,28.05,13.84,46.89C1069.91,601.38,1066.09,605.2,1061.39,605.2z"/>
<path id="SVGID_x5F_2_x5F_" class="st2" d="M1155.62,540c0,108.04-87.58,195.62-195.62,195.62S764.38,648.04,764.38,540
	S851.96,344.38,960,344.38S1155.62,431.96,1155.62,540z"/>
<text><textPath  xlink:href="#SVGID_x5F_2_x5F_" startOffset="34533.332%">
<tspan  class="st0" style="font-family:'RicardoALT-Regular'; font-size:90px; letter-spacing:120;">ZIMIŃSCY</tspan></textPath>
</text>
<g>
	<path class="st0" d="M1156.1,556.95c1.03,1.03,3.76-0.04,5.06-0.74c1.26-0.68,1.64-1.3,3.51-2.31c0,0,0.98-0.53,2.21-1.01
		c5.11-2.01,19.15-3.45,24.06-9.01c4.69-5.31,5.55-16.37-0.28-22.05c-6.17-6.01-16.04-5.88-22.05,0.28
		c-4.17,4.28-8.63,19.43-12.26,29.66C1155.86,553.17,1155.05,555.9,1156.1,556.95z"/>
	<path class="st3" d="M1187.13,539.33c0,0,6.98-6.49-0.12-13.58"/>
	<path d="M1168.23,562.65"/>
</g>
<g>
	<path class="st0" d="M763.98,556.92c-1.03,1.03-3.76-0.04-5.06-0.74c-1.26-0.68-1.64-1.3-3.51-2.31c0,0-0.98-0.53-2.21-1.01
		c-5.11-2.01-19.15-3.45-24.06-9.01c-4.69-5.31-5.55-16.37,0.28-22.05c6.17-6.01,16.04-5.88,22.05,0.28
		c4.17,4.28,8.63,19.43,12.26,29.66C764.23,553.15,765.04,555.87,763.98,556.92z"/>
	<path class="st3" d="M732.95,539.3c0,0-6.98-6.49,0.12-13.58"/>
	<path d="M751.85,562.62"/>
</g>
</svg>
